# xmcd
#
# Track frame offsets: 
#        150
#        25925
#        42446
#        65377
#        87150
#        108473
#        124558
#        145841
#        171949
#        197636
#        213080
#        234274
#        258543
#
# Disc length: 3679 seconds
#
# Revision: 0
# Processed by: cddbd v1.5.2PL0 Copyright (c) Steve Scherf et al.
# Submitted via: ExactAudioCopy v0.95b4
#
DISCID=af0e5d0d
DTITLE=Saturday Nite Fish Fry - Dirt Road Blues 
DYEAR=2007
DGENRE=Blues
TTITLE0=10,000 Men
TTITLE1=Poor Old Me
TTITLE2=I Just Can't Keep From Cryin'
TTITLE3=2X2
TTITLE4=Dirt Road Blues
TTITLE5=Here I Am
TTITLE6=Watchdog
TTITLE7=Room 13 Blues
TTITLE8=Lonesome Day Blues
TTITLE9=Let's Stick Together
TTITLE10=Blowin' In The Wind
TTITLE11=Memphis Ivory Jag
TTITLE12=It Ain't Me Babe (Bonus Track)
EXTD=
EXTT0=
EXTT1=
EXTT2=
EXTT3=
EXTT4=
EXTT5=
EXTT6=
EXTT7=
EXTT8=
EXTT9=
EXTT10=
EXTT11=
EXTT12=
PLAYORDER=
